<mxfile host="Electron" modified="2023-07-27T22:01:19.299Z" agent="Mozilla/5.0 (Macintosh; Intel Mac OS X 10_15_7) AppleWebKit/537.36 (KHTML, like Gecko) draw.io/21.6.1 Chrome/112.0.5615.204 Electron/24.6.1 Safari/537.36" version="21.6.1" etag="j97MYU3Z6HA-bTJmIp_u" type="device">
  <diagram name="Page-1" id="ztVuY390IofEDDErO4NB">
    <mxGraphModel dx="1598" dy="854" grid="0" gridSize="10" guides="0" tooltips="1" connect="1" arrows="1" fold="1" page="0" pageScale="1" pageWidth="850" pageHeight="1100" math="0" shadow="0">
      <root>
        <mxCell id="0" />
        <mxCell id="1" parent="0" />
        <mxCell id="HPb9iFdF9YaHOfAAJQnL-8" value="" style="rounded=1;whiteSpace=wrap;html=1;fillColor=#f8cecc;strokeColor=#b85450;" parent="1" vertex="1">
          <mxGeometry x="261" y="240" width="287" height="267" as="geometry" />
        </mxCell>
        <mxCell id="Erepa9TIJoupjKRTR-r9-5" value="" style="rounded=1;whiteSpace=wrap;html=1;fontSize=14;fillColor=#dae8fc;strokeColor=#6c8ebf;" parent="1" vertex="1">
          <mxGeometry x="308" y="460" width="193" height="41" as="geometry" />
        </mxCell>
        <mxCell id="HPb9iFdF9YaHOfAAJQnL-2" value="&lt;b&gt;Bastion Host&lt;/b&gt;&lt;br&gt;Name: Guacamole" style="text;html=1;align=center;verticalAlign=middle;resizable=0;points=[];autosize=1;strokeColor=none;fillColor=none;" parent="1" vertex="1">
          <mxGeometry x="6" y="422" width="118" height="41" as="geometry" />
        </mxCell>
        <mxCell id="HPb9iFdF9YaHOfAAJQnL-9" value="&lt;font style=&quot;font-size: 14px;&quot;&gt;OpenShift Cluster&lt;/font&gt;" style="text;html=1;align=center;verticalAlign=middle;resizable=0;points=[];autosize=1;strokeColor=none;fillColor=none;" parent="1" vertex="1">
          <mxGeometry x="338" y="241" width="129" height="29" as="geometry" />
        </mxCell>
        <mxCell id="HPb9iFdF9YaHOfAAJQnL-10" value="" style="sketch=0;aspect=fixed;html=1;points=[];align=center;image;fontSize=12;image=img/lib/mscae/OpenShift.svg;" parent="1" vertex="1">
          <mxGeometry x="268" y="255" width="55.44" height="51" as="geometry" />
        </mxCell>
        <mxCell id="HPb9iFdF9YaHOfAAJQnL-43" value="" style="aspect=fixed;perimeter=ellipsePerimeter;html=1;align=center;shadow=0;dashed=0;spacingTop=3;image;image=img/lib/active_directory/laptop_client.svg;fontSize=14;flipH=0;" parent="1" vertex="1">
          <mxGeometry x="-75" y="343" width="60" height="66.67" as="geometry" />
        </mxCell>
        <mxCell id="HPb9iFdF9YaHOfAAJQnL-44" value="Lab User" style="verticalLabelPosition=bottom;html=1;verticalAlign=top;align=center;strokeColor=none;fillColor=#00BEF2;shape=mxgraph.azure.user;fontSize=14;flipH=0;direction=east;flipV=0;" parent="1" vertex="1">
          <mxGeometry x="-123" y="347.00000000000006" width="47.5" height="50" as="geometry" />
        </mxCell>
        <mxCell id="HPb9iFdF9YaHOfAAJQnL-51" value="" style="rounded=0;orthogonalLoop=1;jettySize=auto;html=1;strokeWidth=3;" parent="1" source="HPb9iFdF9YaHOfAAJQnL-45" target="HPb9iFdF9YaHOfAAJQnL-8" edge="1">
          <mxGeometry relative="1" as="geometry" />
        </mxCell>
        <mxCell id="HPb9iFdF9YaHOfAAJQnL-45" value="" style="rounded=1;whiteSpace=wrap;html=1;fontSize=14;labelPosition=right;verticalLabelPosition=middle;align=left;verticalAlign=middle;fillColor=#dae8fc;strokeColor=#6c8ebf;" parent="1" vertex="1">
          <mxGeometry x="16" y="326" width="99" height="98" as="geometry" />
        </mxCell>
        <mxCell id="HPb9iFdF9YaHOfAAJQnL-48" value="" style="endArrow=none;html=1;rounded=0;entryX=1;entryY=0.5;entryDx=0;entryDy=0;fillColor=#ffe6cc;strokeColor=#d79b00;" parent="1" source="HPb9iFdF9YaHOfAAJQnL-45" target="HPb9iFdF9YaHOfAAJQnL-43" edge="1">
          <mxGeometry width="50" height="50" relative="1" as="geometry">
            <mxPoint x="-92" y="775" as="sourcePoint" />
            <mxPoint x="-42" y="725" as="targetPoint" />
          </mxGeometry>
        </mxCell>
        <mxCell id="HPb9iFdF9YaHOfAAJQnL-50" value="Red Hat&lt;br&gt;&lt;div style=&quot;&quot;&gt;&lt;span style=&quot;background-color: initial;&quot;&gt;Enterprise Linux&lt;/span&gt;&lt;/div&gt;" style="text;html=1;align=left;verticalAlign=middle;resizable=0;points=[];autosize=1;strokeColor=none;fillColor=none;" parent="1" vertex="1">
          <mxGeometry x="19" y="331" width="105" height="41" as="geometry" />
        </mxCell>
        <mxCell id="HPb9iFdF9YaHOfAAJQnL-52" value="OC Commands&lt;br&gt;Web Browser" style="text;html=1;align=center;verticalAlign=middle;resizable=0;points=[];autosize=1;strokeColor=none;fillColor=none;" parent="1" vertex="1">
          <mxGeometry x="139" y="335" width="101" height="41" as="geometry" />
        </mxCell>
        <mxCell id="Erepa9TIJoupjKRTR-r9-3" value="&lt;font style=&quot;font-size: 14px;&quot;&gt;OpenShift Data Foundation&lt;/font&gt;" style="text;html=1;align=center;verticalAlign=middle;resizable=0;points=[];autosize=1;strokeColor=none;fillColor=none;" parent="1" vertex="1">
          <mxGeometry x="311" y="466" width="188" height="29" as="geometry" />
        </mxCell>
        <mxCell id="YdZKJw_xvd1K0-ggRBHh-1" value="" style="rounded=1;whiteSpace=wrap;html=1;fontSize=14;labelPosition=right;verticalLabelPosition=middle;align=left;verticalAlign=middle;fillColor=#dae8fc;strokeColor=#6c8ebf;" parent="1" vertex="1">
          <mxGeometry x="310" y="311" width="138" height="134" as="geometry" />
        </mxCell>
        <mxCell id="YdZKJw_xvd1K0-ggRBHh-2" value="" style="shape=image;verticalLabelPosition=bottom;labelBackgroundColor=default;verticalAlign=top;aspect=fixed;imageAspect=0;image=data:image/jpeg,/9j/4AAQSkZJRgABAQAAAQABAAD/2wCEAAkGBxATEBUQEBMVFRUSFRgXGRUYGBYXGRsWFxUWFxUWFxUaHSggHhomGxgXITElJSkrLi4uFx8zOzMsNygtLisBCgoKDg0OGxAQGy8mHyUtLy0vNTEvLy0tNS0tLS0tLS0rLS0tLSsuLS0tLS0tLS0vLS0vLS0tLS0tLy0tLS0tLf/AABEIAOEA4QMBIgACEQEDEQH/xAAcAAEAAwEBAQEBAAAAAAAAAAAABQYHBAMCCAH/xABFEAABAwEEBgQKBwYHAQAAAAABAAIDEQQFITEGEkFRYXEHEyKBIzRCUnJzkaGxszIzU2KCssEIFCQ1dINDY7TR4fDxFf/EABoBAQACAwEAAAAAAAAAAAAAAAADBQECBAb/xAA2EQACAQICBwYFBAIDAQAAAAAAAQIDEQQFEiExUXGBsSIzQWGRwTLR4fDxEzRyoSOCQlKSFP/aAAwDAQACEQMRAD8A3FERAEREAREQBERAEREAReNomYxpfI4Na3EucQAOZKo9+9ITW1ZZG65+0eCGfhbme+neujD4WtiHanG+9+C4v7ZpOpGCvJlzt1uihYZJntY0bSfcBmTwCod+9IbjVljbqj7V4qebWZDm6vJUm326ad/WTPc928nLg0ZAcAuq5rktFpdqwMLgDQuODBzd+gx4L0GHymhQWnWabW/VFfPn6HBUxM59mGrqWW4+kCZh1bWOsb57Q1rh3CjT7u9X+671gtDdeF4cNoycPSacQslvfRy02U+FZVn2jcWd52d4C47LM+NwfG5zHDJzSQfaFjEZbh68f1KLS4a4vktnK3AQxE6b0Z6+puqKhXJpw4UZa21/zGjH8TNvMexXSyWuOVofG4OadoPuO48CqDEYWrQfbWrf4evz1ndTqxqfCdKIi5yQIiIAiIgCIiAIiIAiIgCIiAIiIAiIgCIqtfumlngqyPw0g2NPZB+8/LuFe5S0aFStLRpq7++SMSkoq7LK+QAEkgAYknAAbyVUL909gjqyzgTP87KMd+bu7DiqPfWkFptR8K/s7I24MHdtPE1UdZbLJI8RxNc9xya0VPPlxV/hsmhDtV3fy8Fxf45nJUxDeqJ73te9otLtaeQupk3JrfRaMBzz4ryu67Zp39XBG57ttMhxc44Ac1d7j6Psn2x1P8thx5Of+jfar1YbHHEzq4mNY0bGined54qTEZtRoR0KCTa5RXz5avMjhhpTd56upTbh6P420fa3dY77NtQwczm73DmrrBC1jQxjQ1rRQNAAAG4AL2ReexGKq4iV6jv0XBHbCnGCtFHy5oIoRUHYqpfWhMElXweCf5vkH8Pk92HBW1FrRr1KLvTdunNbDM4RmrSRj94XRNA7VmYW7nZtPJ2Xdmvq77VJE7XieWneNvAjIjmtZmia9pa9oc05ggEHmCqveehzDV1nOqfMdUt7nZj39yuKWaQqLRqq39rmvA454Vx1xfzPq6dLWuo20N1T57a6ve3Me/uVnika4BzSCDkQaj2rM57FJE7VkaWnjt5HI9y7LvtcsRrG4jeMweYUVfAQl2qTt0+/U2hXktUvqaIihbuv5j6CQajt/knv2d/tUzVVU6coO0kdcZKSuj+oiLQyEREAREQBERAEREARFE3xf1nsw8K/tbI24vPdsHE0C2hCU5aMVdhtLaSygL80ps1mq0u15B/hsxIP3jk3vx4FUm+9MrTPVsfgY/untEcX/oKd6rVFeYXJr66z5L3fy9SCdbcTV+6VWm01aXdXGfIZUAj7zs3fDgoOOMuIa0Ek4AAEkncAM1abk0ItE1HTeBj4jtnkzZ3+wq/XRcVnswpCztUxecXnm79BQLrrZhh8LH9Okk3uWzm/yyJUpT1so9xaBSyUfaj1bfMFC88zk33ngFf7suuCzs1IWBg20zPFzjie9dyKhxONrYj43q3LZ9eZ0wpxhsCIi5DcL5e4AVJoN68bZaWRRvlkNGRtc9x3NaCXH2Bfmx8t66R217I3asLO0GOc5sMUdSGawFdaQ76Ek1yAwA/TDHgirSCN4xX2vzDelzXvo9PHOyUajzg5hcYnkZxyxmmNN/MGow/RWjN8MtlkhtcYo2ZgdTOhyc3ucCO5ASiIiA8LRZ2PbqvaHDcVAW3RunahNfuH9Hf7+1WZFLSrTp/C/kayhGW0ovUOadVwII2FSFhtUkf0Th5pxH/CsdoszHijwD8RyKi57pLcWHWG7b/yuv8A+mFRWl9CD9Jx1o7rLb2vwPZO45dxXaq/GzYVIWaRwwzG5c1Skl8JLGe8kEXy11V9KAkCIiAIiIAiIgM50g01lc50dm7DASOszc6mFR5o9/JU97iSXOJJOJJNSTvJKs2keiU0TnSQjrIqk4YuYNxbtA3jdjRVoHaPaF7HBRoKnehs/vn5/a1HNO99ZN3JonabRR1OrjPlvGY+6zM+4cVfrl0as1mALG6z/tHYu/Dsb3e9Va4NOHspHawXty6wDtD0h5Q4jHmr5Y7XHKwSRODmnIg17uB4KmzKti09GeqL3bHxe3k7cCSnGPhtOlERU5KEREAREQEff1g/eLJPZq6vXwyRV3dYxzK+9fnjot0sbc9stFnt0b2Nl1WSECro3xF9Kt2t7bsq7KVX6XWY9OWj1kfds9udC394hEQbKKh1HTxsIdQ0cNVxA1q0rggKL0w9IFmvGOKxWIPe1sokMhaW6z9VzWNY09o/TdWoGNFsPRxc77HdVms0uD2MLnA5tdI90rmmm4vp3LPf2fNH7I+zPt0kLXWiO0vjZI6p1WiKFw1Wk0Bq53apXHNbSgCIiAIiIAiIgPKSFrsx37V5Cz04r0nmYxpe9wa1oqXOIAA3knJUDSPpDzjsQrsMrhh+Bhz5u9hXVhcNWxEtGmtXi/Bc/ZayGrUhTV5Ftvm/bPZWa076E/RYMXu9Fv6nDiqWOk93W4wDqq5Bx16b60pXh79qodpnfI8ySOL3Ozc41J7yvIr02GyXDwX+VaTfFeln1KyrjqjfZ1L723P0PZ5mvY17DVr2hwO8EVB9i9lGaOeJ2b1EXy2qTXkqkNCcorwbRcJ3VwiItDIREQHn1irl+6JQWiskfgpDtA7Lj95u/iMeal+sXXAeyP8Au1TwqTovSg7Mw0ntMbva6J7O7VmZSuThi13ou/TPgvi7b0ms79eJ5adoza7g5uR+K2a02dkjSyRoc05gioVEv/QZzayWQ6w+yccR6DjnyOPEq8w2aU6y0KySb/8AL+XPV5kUqbWwlrg0yhmoyakUhwxPYcfuuOR4H2lWtYTLGWktcCCMC0ggg7iCp+4NLJ7PRjvCxDyXHED7jv0OHJR4rKE+1Q9Pk/nq8xGr/wBjV0UZc98wWhutE6pGbDg5vNv6jBSaopRlCTjJWZMncIiLUBUbps/kVr/s/wCphV5VG6bP5Fa/7P8AqYUBB/s5fyqb+sf8izrVVlX7OX8qm/rH/Is61VAEREARFw3necNnZrzvDBsrmTua0Yk8lmMXJqMVdmG7K7O5VnSLS+z2WrB4WUf4bTkfvu8nlieCp2kenU0tY7PWGPKte24cSPo8hjx2KoAbN/xK9Bg8kb7Vf0Xu/ZeqOKtjLaoepI37f9ptTqzP7IPZjbgxvdtPE1K5Ltu6aeTq4GF7twyA3uOQHEq16OaAyy0ktVYo89Ty3cwfoDnjwGa0i7buhgjEcDAxo2DMne4nEniV1YnNaGGj+nRSbW74V6beXqQU8LOo9KerqUVmgkUFkmmtB6yZsMjmgVDWODHEEbXEbzhw2rO1vGk3iVp/p5fluWEFTZNiKleEp1Hd3XTwNMbTjDRUVvN40d8Ts3qIvltUkozRzxOzeoi+W1Sa8piO9nxfUto/CgiIoTYIiICF6xSdiPYHf8SoHrFNXafBDv8AiV1V42jzB1oiLlBE31cMFpHhG0cBhI3Bw79o4FZzf2jFos1XU14/tGjL02+T8OK1xfwhd2EzCrh9S1x3P23dPI0lBSMLgmexwexxa5uTgaEd4V4uDTvKO1jgJWjD8bRlzHsC7r/0Jilq+z0if5v+Ge4fR7sOCz68Lvlhf1czCx3HIje05EcleKWFzCFnt9JLh5eq3ohtKDNrgma9oexwc1wqHAggjeCF6rF7mvu0WZ1YndknFhxYeY2HiKFaNcGldntNGHwcnmOOZ+4fK5YHgqbF5ZVoXku1Hf48177CWNRS1FiVG6bP5Fa/7P8AqYVeVRumz+RWv+z/AKmFVxIQf7OX8qm/rH/Is61VZV+zl/Kpv6x/yLOtVQBfLnACpwA2qGv3SOz2UUkdrPphG3Fx3E+aOJ96zS/9J7RaSQ86keyJuX4jm488OAXfhMuq4jtbI737Lx6eZFUrRhxLfpFp3HHWOy0kfl1h+rHI+UeWHErOrfbZZnmSZ5e47T8AMgOAwX8stmkkeI4ml7nZNaKn/wA4q/6PaANFJLYdY59U09kem4fS5DDmr9LCZdC/j6yf09EcT/UrP7sU64tHLRa3eCbRgOMjsGDfQ7TwHfRabo9onZ7LRwHWSfaOGI9AZNHv4lT0UTWtDWgNaBQACgA3ABeio8XmlXEXiuzHcvd+PDUjrpYeMNe1hERVpORmk3iVp/p5fluWErdtJfErT/Ty/LcsKK9VkD/wy/l7FZj9q5m7aO+J2b1EXy2qSUbo94nZvURfLapJear97Li+pZR2IIiKIyEREBUesVhug+Bb3/mKquurRch8A38X5irHGRtDn8wd6IirgEREAXJeFgimYY5mB7TsOw7wcweIXWiym07oGa6QaESx1fZqys8zyxy84cseBVRI93xC3hQN/aM2e01cRqSfaNGP4hk4e/iFd4TOHHs1/Vbea8eO3iQypbinXDptNFRlorLHv/xGjmfpd+PFdHS1esE1wWl8UjXBxhAFaGv7xES0tOINATTcFXdIrlnsYc+ZtY2gnrG4tIArnsPA+9Z7ono1ar7tT/CCNkYBe8guDGuJDGMZUVJodo+iSTv1zSGG0VUp7ZbrW877vzfeKWlezNN6ALdDFdM7pZGtDbW8mpAwMMAGGeJBA30UtpDp299Y7ICxuXWEdo+iPJHE48lkunWgNqud0VoZMJI3u1RK1uoQ+hOo9lTgQDTE1oa022rRSxTW6Nj4GV1h2jkxpydV3MHDPgtMrp4aWlKrtWvXbRtv/PkYrOX/AB+p5SPJJc4kk4kk1JO0klWTR/Qya0UfJWKI7SO24fdadnE+9XDR7Q6Cz0e/wsox1iOy0/dbv4nHkrSunF5yvhoLm/Ze79DSGH8ZEbdF0QWZmpCwCubji53FztvwUkiKhlOU25Sd2zpSSVkERFqZCIiAjNJPErT6iX5blhZW6aSeJWj1Evy3LDF6nIO5l/L2K3HfEuBumjvidm9RF8tqklG6O+KWf1EXy2qSXm6/ey4vqWMdiCIiiMhERAZ/rq3XAf4dnN35yqSXq6aNn+GZzd+dyt8wVqfP5glERFUAIiIAiIgCKC0o0rsdgi621yhta6rBjI+mxjMzsxyFcSFhukXSDel8TfuV3xvjifUdVGe29tQNaWTDVbvFQ3tUJOaAvXSf0m2GKCewxfxEs0b4nahHVx67Sx2tJtcKnstriMS1Zb0X6c//ACp5DLE58Npa3XDaB41C7UeytAR2nClRnnhjpWgnQxZ4NWe8S2eXMQj6lvpVxkPsbngc119LF1WeWSBskTSGxEDChADsACKEDgFPhsO69T9OLs9f9GspaKuZ50p9I7b0bFZbLDI2Jj+sJeB1jnhrmijWkgNDXO2mtdlMbN0QdJdihs0V3WodQY9bVmJrG4ve551z5Bq459nDMZLs6L7ns8NuBija09W/HEnIeU6pUxp10RWO2601mpZrQamrR4J5OPbYMj95u8khyzisNLDzUJNN2vq5iMtJXNIjeCAQQQRUEYgg5EFfa/NF2aR3zcEws1oYXQ1NIXmsbhUVdBIK6uezDtYtqtu0N05sN4srZ5KSAVdA+gkbvNPKbxbUYjI4LnNi0oiIAiIgCIiAjNJPErR6iX5blhpW5aR+JWj1Evy3LDSvU5B3Mv5exX43auBuejvidn9RF8tqklG6O+J2f1EXy2qSXm6/ey4vqd8diCIiiMhERAZhrq86MH+FZzf+dyz/AFlftFT/AAjOb/zuV5matS/2XRmWiYRF8ucAKnADaqMwfSLB9K+mO2S2k2e54+yHFrZNQyySEeUyPEBuBpUEkY4ZDlujplvKyymK84OsoDgWdRKDSrailNX8Nca8CBvs8zWNL3uDWtBJc4gAAZkk4ALHtPOmqOPWguwCR+INocOw05eDYfpnPE9nAfSBVMtd431pDP1UbS2Bp+g0ubZ2Yihlf5T8jjU50AxWr6C9FdisGrNJ/EWkY9Y4dlh/y48QCPONTupWiAzfRfoyvK9Jf3285JI434l0lTM8bAxjsGNzoTgMKNIW46O6N2SxRdTZImxt2nNzjve84uPPLZRTKIAs66TfrofVu/MtFWd9Jv10PoO/MrLKf3S4PoaVPhI/o98eb6D/AIBaoss6PvHh6D/gFqakznv1w92YpbDgva6oLTE6C0xtljdm1wqOBG0EbCMQsS0x6H7TZn/vd0Pe8MJcIg4tnYf8p4prAY7nYD6RW+IqkkMK0K6aJI3CzXu09k6v7w1tHtINCJYgMaY1LccMicVtdgt0U0bZYHtkY4VD2EEHvCrGm/R5YbxaXSN6uelGzsFHcA8ZPblnjuIWL2u7760dn6yNxdA4/TGs6zyZUEjPJflnQ50JFUB+mUX5/vbpvt04jisNnEcjhRxoZnF+6JtKU5gnHhj8XR0v3rZJhHesJe00Lmui6iYNJ+k0Ua07cCMd4QH6DRc1htkc0TJonB0cjQ9rhkWuFQfYulARmkfiVo9RL8tyw9bhpH4laPUS/LcsQK9RkPcy/l7HBjFrXA3DR3xOz+oi+W1SSjdHfE7P6iL5bVJLzlfvZcX1O6OxBERRGQiIgMj1loeiJ/g4+b/mOWb6y0bQ7xOPm/5jl6HNlaj/ALLpI3kTag9N2PddtsbFXXNmmDQMyerdgOKnEXnjQwL9nO0WVs9pY8tFoe1gj1qVMY1jI1nGuoSNtBuK7/2jrTZSyzRgtNqa9xwprNhLcQ7cC7VpXc6m1e2mXQj1kzp7tlZFrnWMMmsGNNanq3tBIG5tMN9MB4aKdBrmzCW8pmPa11epi1jr7e3I4AgbwBjvCA0Lotgcy57GHAAmEOwAGDiXNOG0tINVbV8RsAAAAAAoAMAAMgAvtAEREAWedJn10PoO/MtDWedJn10PoO/MrHKv3S4PoaT2HB0feOj0H/ALUll3R946PQf8AtRUmcd+v4rqxT2BERVRuFHX9A59knjaA5z4ZA0EAguLCGihwONFIogPzt+z1abKy3TNmLRM+MCEuoK4nrGtr5RGrxoDxVo/aLnsv7pBG4tNpE2swCmuIi1wkJ2hhOpzIG4r60+6GW2mZ9qsEjInyEufE8Hqy4/Sc1zQS2uJpQip2KJ0d6DJTKJLxnYWA1McJe5z+DpHBuqOQJptGYAvvQwx4uSy9ZWpEhFc9QzSFvdQ1HAhXheFlgZGxscbQ1jGhrWgUDWtFGtA2AAAL3QEZpH4nafUSfLcsRIW36ReJ2j1En5CsTcF6fIu5l/L2RwYrauBtmjvidn9RF8tqklG6PeJ2f1EXy2qSXncR3suL6s7o7EERFEZCIiAxqq0DQu2xGzthDx1jS+rcjTXcQQNooRkq1fujU0Jc5jdeKpILcS0bnDPDflyUG1xBBBoRiCMxxBXqK8IY2l2Zar366n6kzWkbMiz26NMZY6NnHWN87J478nd9DxV0u29IZ260Tw7eMnDm04hUGIwlWh8S1b1s+hE00dyIi5jAREQBERAFnnSX9dD6DvzLQ1n3SV9dD6DvzKxyr9yuD6GsthwdH3jrfQf8AtQWYaAeOt9B/wC09SZx364e7MQ2BERVRuEREAREQBFzWy2RxN15Xho4/ADMnkqZfWmbzVlmGqPtHAF34W5DvryC6KGFq13aC5+H3wuaymo7SwaV26KOyyse4B0kT2tbtJLSBQZ0qc8gsgcF2WmRz3F73Fzjm4kknmSu+5tGbRaSCxurHtkdg2n3Rm48sOIXpsHRhgqT05ar3b2Ll96ziqN1HqRp+j3idn9RF8tqkV4WSziONkbco2taOTQAPgvdeUqSUpykvFvqdyVkERFoZCIiAKBvjRizz1IHVvPlNGBP3m5H3Hip5FJTqzpvSg7MJ2Mqve4Z7Pi5tWee3Fvfu71HwyuY4OY4tcMiDQ+0LY+BVbvjRGGSrofBP3D6B/Ds7vYVcYfNYvs1lbzWzmvzyJFLeRV0aauFGWlusPtGjH8Tcj3U5FXGxW2OVuvE8PbvHwIzB4FZbed0zwGkrCBscMWnk79DiueyWuSJ2vE8sdvHwIyI4FSVstpVlp0nb+0/ly9DDjuNkRUu59NWmjLS2h+0aMPxNzHdXkFboJ2PaHscHNORBBHtCpq+Hq0Xaa+Xr7ama2seyIigMBZ90k/WxegfzLQVn/SR9bF6B/MrHKv3K4PoYlsODQDx1voP+AWnrMdAfHW+g/4BacpM379cPdmIhERVRsEXy5wAqcAoi3321uEY1jv8n/lbwpym7RQbsSssrWgucQ0DaTQKs3rpTSrYBX77su5u3v9iibfaZJDWRxO4bByC5oLFJK7VjaXH3DmcgrOhgqcVpVNfQilN+BwW2d8jteRxc7efgNw4BLvueec0iZUbXHBo5u/QVKuN26JRto6Y6580YN79p9ysccYaA1oAAyAFAOQUtXM4wWjSV+np+DVUr7St3NofBFR03hX8R2Bybt7/YFZwv6iqatapVd5u/36EyilsCIiiMhERAEREAREQBERAeUsTXAtcA4HMEAg8wVVb30MY6rrOdQ+Y6paeRzHvHJW9FNRr1KLvB2MpmO26wywu1JWFh45HiDkRyX1d95TQO1oXlu8ZtPNuRWsWqyskaWSNDmnYRXv5qoXxoTm+yu/tuP5X/7+1XVDM6VVaFZW/uP056vMzfedlz6ZRPo2cdU7zs2Hvzb34cVaI3ggEEEHEEYinNY3abO+NxZI0tcNhFD/AOcV2XTfdos58E7s7WOxae7ZzFFrXyqEu1RdvLw5P88g0a2s/wCkf62L0HfmU5c+lsE1GyeCfuceyTwf+hp3qE6R/rYvQP5ly5fSnSxajNWdn037HyNWcGgPjrfQf8AtOWZ6BeOt9B/wC0l8gCzm+uuuHuzCPtcVpt7W4DtH3e1eVplccNm5cTmVwC4adJPaDnttpe/6Rw3DL2LhEDnHVaCTuCnYLrJxeaDcM/8AhScMDWCjAB/3aV0PExpq0foY0SCsWjw+lMfwj9Xf7e1TsMLWDVYA0DYMF6ouSpVnU+JmUrBERRmQiIgCIiAIiIAiIgCIiAIiIAiIgCIiA47fd8MzdSVgcNlcxxBzHcqZfOhcjKus56xvmGgeORyd7jzV/RdOHxdWh8D1bns++Bm5ikkZaS1wIIwIIoQdxBX9kmc4Na5xIYKNBJNBuG4LWL1ueCcUlZU7HDBw5O/Q4Kk3vodPFV0PhWcB2xzbt7vYr3D5lSrWUtT89nJ7OjFzz0D8dHoP+AWiyNVL0IuWdkxnlY5jWtLQHCjiTTYcaAVz4K9qrzOrGVfsu9kvcwcgs5OeC9o4WtyHftXqirnJsBERYAREQBERAEREAREQBERAEREAREQBERAEREAREQBERAEREAREQBERAEREAREQBERAEREAREQBERAf/9k=;" parent="1" vertex="1">
          <mxGeometry x="336" y="348" width="86" height="86" as="geometry" />
        </mxCell>
        <mxCell id="YdZKJw_xvd1K0-ggRBHh-3" value="&lt;font style=&quot;font-size: 12px;&quot;&gt;&lt;b&gt;Cloud Pak&amp;nbsp;&lt;span style=&quot;text-align: left;&quot;&gt;for AIOps&lt;/span&gt;&lt;/b&gt;&lt;/font&gt;" style="text;html=1;align=center;verticalAlign=middle;resizable=0;points=[];autosize=1;strokeColor=none;fillColor=none;fontSize=14;" parent="1" vertex="1">
          <mxGeometry x="316" y="323" width="134" height="29" as="geometry" />
        </mxCell>
      </root>
    </mxGraphModel>
  </diagram>
</mxfile>
